<svg width="48" height="48" viewBox="0 0 48 48" fill="none" xmlns="http://www.w3.org/2000/svg">
  <defs>
    <linearGradient id="brain-grad-v3" x1="0%" y1="0%" x2="100%" y2="100%">
      <stop offset="0%" style="stop-color:#4DF9FF;stop-opacity:1" />
      <stop offset="60%" style="stop-color:#83C7FF;stop-opacity:1" />
      <stop offset="100%" style="stop-color:#C1A5FF;stop-opacity:1" />
    </linearGradient>
  </defs>
  <rect x="2" y="2" width="44" height="44" rx="14" fill="url(#brain-grad-v3)"/>
  <path d="M24 14V31.5" stroke="white" stroke-width="2.5" stroke-linecap="round"/>
  <path d="M24 14C21 14 18 16 18 20C18 21.5 18.5 22.5 19 23" stroke="white" stroke-width="2.8" stroke-linecap="round" stroke-linejoin="round"/>
  <path d="M24 14C27 14 30 16 30 20C30 21.5 29.5 22.5 29 23" stroke="white" stroke-width="2.8" stroke-linecap="round" stroke-linejoin="round"/>
  <path d="M19 23C17 24 17 26.5 17.5 28.5C18.5 31 21 31.5 24 31.5" stroke="white" stroke-width="2.8" stroke-linecap="round" stroke-linejoin="round"/>
  <path d="M29 23C31 24 31 26.5 30.5 28.5C29.5 31 27 31.5 24 31.5" stroke="white" stroke-width="2.8" stroke-linecap="round" stroke-linejoin="round"/>
  <path d="M20.5 18.5C21.5 19.5 22 21 22 22" stroke="white" stroke-width="1.8" stroke-linecap="round" stroke-opacity="0.7"/>
  <path d="M27.5 18.5C26.5 19.5 26 21 26 22" stroke="white" stroke-width="1.8" stroke-linecap="round" stroke-opacity="0.7"/>
</svg>